<svg width="120" height="120" viewBox="0 0 120 120" fill="none" xmlns="http://www.w3.org/2000/svg">
<rect width="120" height="120" fill="black"/>
<path d="M83.1914 50.6304H101.525V68.964H83.1914V50.6304Z" fill="#00AFAB"/>
<path fill-rule="evenodd" clip-rule="evenodd" d="M83.1863 45.58C78.4967 38.1763 69.6851 33.4 60.63 33.4C46.6959 33.4 35.4 45.0854 35.4 59.5C35.4 73.9146 46.6959 85.6 60.63 85.6C69.5273 85.6 78.4378 81.2706 83.1863 74.0566H101.52C98.9501 82.651 93.8818 89.3883 86.3151 94.8618C78.7483 100.287 70.4201 103 61.3305 103C55.9528 103 50.5514 101.92 45.1262 99.7591C39.7485 97.5505 35.1085 94.5497 31.2062 90.7566C26.8755 86.5315 23.5918 81.7061 21.3551 76.2806C19.1184 70.8551 18 65.0695 18 58.9238C18 47.0646 22.2117 36.9578 30.6351 28.6035C39.1061 20.2012 49.2903 16 61.1877 16C70.1346 16 78.4866 18.7608 86.2437 24.2823C94.0008 29.8038 99.0929 36.7936 101.52 45.58H83.1863Z" fill="white"/>
</svg>
